<?xml version="1.0" standalone="no"?>
<!DOCTYPE svg PUBLIC "-//W3C//DTD SVG 20010904//EN"
 "http://www.w3.org/TR/2001/REC-SVG-20010904/DTD/svg10.dtd">
<svg version="1.0" xmlns="http://www.w3.org/2000/svg"
 width="400.000000pt" height="400.000000pt" viewBox="0 0 400.000000 400.000000"
 preserveAspectRatio="xMidYMid meet">
<metadata>
Created by potrace 1.11, written by Peter Selinger 2001-2013
</metadata>
<g transform="translate(0.000000,400.000000) scale(0.100000,-0.100000)"
fill="#000000" stroke="none">
<path d="M1780 3939 c-223 -26 -429 -87 -635 -188 -406 -200 -696 -490 -896
-896 -193 -392 -246 -813 -158 -1255 57 -286 206 -600 396 -832 179 -219 393
-388 658 -519 392 -193 813 -246 1255 -158 286 57 600 206 832 396 342 278
593 692 677 1113 69 346 50 685 -55 1010 -65 200 -205 455 -341 622 -278 342
-692 593 -1113 677 -203 40 -433 51 -620 30z m55 -886 c65 -43 194 -153 199
-171 3 -9 14 -71 26 -137 11 -65 26 -125 32 -132 6 -7 28 -13 50 -13 99 0 268
-50 337 -101 60 -43 77 -78 91 -185 19 -156 14 -414 -10 -429 -3 -2 -17 43
-29 100 -28 137 -66 267 -97 334 -28 63 0 64 -279 -3 -104 -25 -210 -46 -235
-46 -25 1 -121 9 -214 18 l-169 18 -18 -31 c-21 -34 -47 -142 -63 -265 -7 -47
-14 -80 -18 -75 -24 41 -26 254 -4 409 12 84 18 103 43 128 56 60 197 111 339
124 44 4 74 11 74 18 0 35 -58 124 -129 199 -44 48 -81 89 -81 93 0 4 7 15 15
24 9 10 18 41 22 71 11 99 31 108 118 52z m-48 -1031 c12 -7 35 -29 52 -49
l31 -38 125 0 125 0 32 39 c33 41 96 75 137 76 28 0 164 -64 182 -86 19 -23
-17 -159 -53 -200 -81 -92 -240 -63 -283 51 l-18 45 -122 0 -123 0 -7 -27
c-10 -42 -53 -93 -91 -109 -70 -29 -162 -10 -204 44 -25 31 -63 157 -55 181 5
18 81 60 154 86 35 13 79 8 118 -13z m518 -661 c54 -31 110 -144 88 -179 -14
-24 -75 -26 -173 -8 -68 13 -102 14 -208 5 -152 -13 -328 -43 -348 -60 -33
-27 -84 56 -84 136 0 38 3 45 19 45 11 0 48 13 83 30 74 35 88 36 187 13 l74
-17 106 27 c161 40 196 42 256 8z"/>
</g>
</svg>
