<?xml version="1.0" encoding="utf-8"?>
<!-- Generator: Adobe Illustrator 20.1.0, SVG Export Plug-In . SVG Version: 6.00 Build 0)  -->
<svg version="1.1" id="Layer_1" xmlns="http://www.w3.org/2000/svg" xmlns:xlink="http://www.w3.org/1999/xlink" x="0px" y="0px"
	 viewBox="0 0 800 600" style="enable-background:new 0 0 800 600;" xml:space="preserve">
<style type="text/css">
	.st0{fill:#ffffff;}
</style>
<path class="st0" d="M488.5,283.3c0,0-11.7-64.5-23.8-80c-8.5,1.6-69.4,16.9-72.7,16.8c-3.3,0.1-57.5-4.6-65.9-6.2
	c-10.6,13.6-14.6,61.2-14.6,61.2c-6.4-18.1-4.6-43.1,0.2-75.5c0-16.2,27.7-29.6,71.4-32.3c-2.6-21.5-26.3-37.9-34.7-49.1
	c18.9-7.8-14.6-60.6,56.7,3c4.1,19.6,3.8,29.7,9.2,45.9c48.4,2.5,74.8,19.4,74.8,36.1C493.5,234.2,494.3,265.2,488.5,283.3z"/>
<path class="st0" d="M333.5,375.3c11.1-0.5,16.2-7.8,26.6-9.7c11.2-2,19.2,3.4,29,4.3c15.6,1.5,58-26.1,70.7,9.4
	c14.5,27.9-21.4,13.7-34.5,12.9c-20.6-1.3-81.2,7.1-80.1,11.7c-5.8,1.3-13.3-15.9-11.7-23.8"/>
<path class="st0" d="M473.6,281.3l-0.4,1.3l0,0.2c0,14.7-12,26.6-26.8,26.6c-11.5,0-21.3-7.3-25.1-17.4h-43.7
	c-3.8,10.2-13.6,17.4-25.2,17.4c-14.8,0-26.8-12-26.8-26.8l-0.4-0.8c-9.1-14.9,9.4-17.9,9.4-17.9s12-7.6,17.8-7.6
	c12.4,0,22.8,8.2,25.9,19.6c13.7,3.7,27.3,4.3,41.9,1c2.6-12,13.4-21.1,26.2-21.1c5.8,0,11.4,2.9,16,6.4l1.8,1.7
	C464.2,263.9,483.1,265.6,473.6,281.3z"/>
</svg>
